<svg width="1600" height="900" viewBox="0 0 1600 900" fill="none" xmlns="http://www.w3.org/2000/svg">
  <defs>
    <linearGradient id="base" x1="160" y1="60" x2="1440" y2="860" gradientUnits="userSpaceOnUse">
      <stop stop-color="#101D31"/>
      <stop offset=".48" stop-color="#0B1221"/>
      <stop offset="1" stop-color="#17122E"/>
    </linearGradient>
    <radialGradient id="tealGlow" cx="0" cy="0" r="1" gradientUnits="userSpaceOnUse" gradientTransform="translate(150 180) rotate(34) scale(610 510)">
      <stop stop-color="#2DD4BF" stop-opacity=".3"/>
      <stop offset="1" stop-color="#2DD4BF" stop-opacity="0"/>
    </radialGradient>
    <radialGradient id="violetGlow" cx="0" cy="0" r="1" gradientUnits="userSpaceOnUse" gradientTransform="translate(1390 220) rotate(148) scale(620 540)">
      <stop stop-color="#8B5CF6" stop-opacity=".3"/>
      <stop offset="1" stop-color="#8B5CF6" stop-opacity="0"/>
    </radialGradient>
    <radialGradient id="blueGlow" cx="0" cy="0" r="1" gradientUnits="userSpaceOnUse" gradientTransform="translate(1120 760) rotate(-38) scale(620 390)">
      <stop stop-color="#60A5FA" stop-opacity=".22"/>
      <stop offset="1" stop-color="#60A5FA" stop-opacity="0"/>
    </radialGradient>
    <linearGradient id="line" x1="180" y1="170" x2="1418" y2="720" gradientUnits="userSpaceOnUse">
      <stop stop-color="#5EEAD4" stop-opacity=".65"/>
      <stop offset=".5" stop-color="#60A5FA" stop-opacity=".42"/>
      <stop offset="1" stop-color="#A78BFA" stop-opacity=".62"/>
    </linearGradient>
    <linearGradient id="horizon" x1="300" y1="0" x2="1280" y2="900" gradientUnits="userSpaceOnUse">
      <stop stop-color="#0B1221" stop-opacity="0"/>
      <stop offset=".5" stop-color="#0B1221" stop-opacity=".8"/>
      <stop offset="1" stop-color="#0B1221" stop-opacity="0"/>
    </linearGradient>
    <pattern id="grid" width="72" height="72" patternUnits="userSpaceOnUse">
      <path d="M72 0H0V72" stroke="#B8D4FF" stroke-opacity=".08"/>
    </pattern>
    <filter id="blurLarge" x="-400" y="-400" width="2400" height="1700" filterUnits="userSpaceOnUse">
      <feGaussianBlur stdDeviation="60"/>
    </filter>
    <filter id="glow" x="-100" y="-100" width="1800" height="1100" filterUnits="userSpaceOnUse">
      <feGaussianBlur stdDeviation="10"/>
    </filter>
  </defs>

  <rect width="1600" height="900" fill="url(#base)"/>
  <rect width="1600" height="900" fill="url(#tealGlow)"/>
  <rect width="1600" height="900" fill="url(#violetGlow)"/>
  <rect width="1600" height="900" fill="url(#blueGlow)"/>
  <rect width="1600" height="900" fill="url(#grid)" opacity=".48"/>
  <ellipse cx="800" cy="420" rx="560" ry="350" fill="url(#horizon)" filter="url(#blurLarge)"/>

  <g opacity=".68" stroke="url(#line)" stroke-width="2">
    <path d="M112 188L310 108L492 228L676 112L842 230L1034 124L1248 248L1486 158"/>
    <path d="M86 604L280 734L496 614L704 756L906 622L1122 766L1350 608L1510 722"/>
    <path d="M310 108L280 734M492 228L496 614M676 112L704 756M842 230L906 622M1034 124L1122 766M1248 248L1350 608"/>
    <path d="M112 188L496 614M1486 158L1122 766M676 112L1350 608M1034 124L280 734"/>
  </g>

  <g opacity=".42" stroke="#D6E6FF" stroke-width="1">
    <path d="M-40 384H1640M-40 486H1640"/>
    <path d="M798 0V900M898 0V900"/>
  </g>

  <g filter="url(#glow)" opacity=".8" fill="#5EEAD4">
    <circle cx="112" cy="188" r="7"/>
    <circle cx="676" cy="112" r="6"/>
    <circle cx="1034" cy="124" r="7"/>
    <circle cx="280" cy="734" r="6"/>
    <circle cx="906" cy="622" r="7"/>
    <circle cx="1350" cy="608" r="6"/>
  </g>
  <g fill="#08121D" stroke="#C7D9FF" stroke-opacity=".7" stroke-width="2">
    <circle cx="112" cy="188" r="13"/>
    <circle cx="310" cy="108" r="9"/>
    <circle cx="492" cy="228" r="11"/>
    <circle cx="676" cy="112" r="13"/>
    <circle cx="842" cy="230" r="9"/>
    <circle cx="1034" cy="124" r="13"/>
    <circle cx="1248" cy="248" r="10"/>
    <circle cx="1486" cy="158" r="13"/>
    <circle cx="86" cy="604" r="9"/>
    <circle cx="280" cy="734" r="13"/>
    <circle cx="496" cy="614" r="9"/>
    <circle cx="704" cy="756" r="11"/>
    <circle cx="906" cy="622" r="13"/>
    <circle cx="1122" cy="766" r="10"/>
    <circle cx="1350" cy="608" r="13"/>
    <circle cx="1510" cy="722" r="9"/>
  </g>

  <g transform="translate(1216 328)" opacity=".82">
    <circle cx="0" cy="0" r="148" stroke="#5EEAD4" stroke-opacity=".18" stroke-width="1"/>
    <circle cx="0" cy="0" r="102" stroke="#60A5FA" stroke-opacity=".3" stroke-width="2" stroke-dasharray="4 13"/>
    <circle cx="0" cy="0" r="58" fill="#0B1628" fill-opacity=".78" stroke="url(#line)" stroke-width="2"/>
    <path d="M-32 0L0 -18L32 0L0 18L-32 0Z" fill="#5EEAD4" fill-opacity=".54"/>
    <path d="M-32 0V30L0 48V18L-32 0Z" fill="#60A5FA" fill-opacity=".42"/>
    <path d="M32 0V30L0 48V18L32 0Z" fill="#A78BFA" fill-opacity=".42"/>
  </g>

  <g opacity=".62" fill="#AEB8CC" font-family="JetBrains Mono, monospace" font-size="12" letter-spacing="3">
    <text x="88" y="820" fill="#5EEAD4">DECENTRALIZED / OPEN / VERIFIED</text>
    <text x="1290" y="82">BLOCK  /  0x04</text>
  </g>
</svg>